<svg id="visual" viewBox="0 0 1024 400" width="1024" height="400" xmlns="http://www.w3.org/2000/svg" xmlns:xlink="http://www.w3.org/1999/xlink" version="1.1"><rect x="0" y="0" width="1024" height="400" fill="#008468"></rect><path d="M0 208L21.3 200.8C42.7 193.7 85.3 179.3 128 188.7C170.7 198 213.3 231 256 245C298.7 259 341.3 254 384 256.2C426.7 258.3 469.3 267.7 512 246.7C554.7 225.7 597.3 174.3 640 165.2C682.7 156 725.3 189 768 203.2C810.7 217.3 853.3 212.7 896 214.7C938.7 216.7 981.3 225.3 1002.7 229.7L1024 234L1024 0L1002.7 0C981.3 0 938.7 0 896 0C853.3 0 810.7 0 768 0C725.3 0 682.7 0 640 0C597.3 0 554.7 0 512 0C469.3 0 426.7 0 384 0C341.3 0 298.7 0 256 0C213.3 0 170.7 0 128 0C85.3 0 42.7 0 21.3 0L0 0Z" fill="#001220" stroke-linecap="round" stroke-linejoin="miter"></path></svg>